STARTFONT 2.1
FONT -ibm-courier-medium-r-normal--8-80-100-100-m-55-iso8859-2
SIZE 8 100 100
FONTBOUNDINGBOX 8 12 0 -1
COMMENT $Header: courR08.bdf,v 1.1 96/01/22 23:46:57 peterlin Exp $
COMMENT 
COMMENT Copyright International Business Machines,Corp. 1991
COMMENT IBM Courier is a Trademark of the IBM Corporation.
COMMENT 
COMMENT Automatic rendering from Adobe Type 1 outline:
COMMENT Primoz Peterlin <primoz.peterlin@biofiz.mf.uni-lj.si>
COMMENT cour.pfa rendered at 9.000000 points
COMMENT Checksum eb69a063
STARTPROPERTIES 3
FONT_ASCENT 10
FONT_DESCENT 1
DEFAULT_CHAR 32
ENDPROPERTIES
CHARS 191
STARTCHAR space
ENCODING 32
SWIDTH 557 0
DWIDTH 7 0
BBX 0 0 0 1
BITMAP
ENDCHAR
STARTCHAR exclam
ENCODING 33
SWIDTH 557 0
DWIDTH 7 0
BBX 2 7 3 1
BITMAP
80
80
80
80
80
00
40
ENDCHAR
STARTCHAR quotedbl
ENCODING 34
SWIDTH 557 0
DWIDTH 7 0
BBX 3 3 2 5
BITMAP
a0
a0
a0
ENDCHAR
STARTCHAR numbersign
ENCODING 35
SWIDTH 557 0
DWIDTH 7 0
BBX 5 9 1 0
BITMAP
50
50
50
f8
50
f8
50
50
50
ENDCHAR
STARTCHAR dollar
ENCODING 36
SWIDTH 557 0
DWIDTH 7 0
BBX 5 10 1 -1
BITMAP
20
60
b8
a8
60
38
a8
f0
20
20
ENDCHAR
STARTCHAR percent
ENCODING 37
SWIDTH 557 0
DWIDTH 7 0
BBX 7 7 0 1
BITMAP
70
90
6c
70
4c
12
1c
ENDCHAR
STARTCHAR ampersand
ENCODING 38
SWIDTH 557 0
DWIDTH 7 0
BBX 5 7 1 1
BITMAP
30
48
40
28
e8
90
68
ENDCHAR
STARTCHAR quoteright
ENCODING 39
SWIDTH 557 0
DWIDTH 7 0
BBX 2 3 2 5
BITMAP
40
80
80
ENDCHAR
STARTCHAR parenleft
ENCODING 40
SWIDTH 557 0
DWIDTH 7 0
BBX 3 9 3 0
BITMAP
40
40
40
80
80
80
40
40
40
ENDCHAR
STARTCHAR parenright
ENCODING 41
SWIDTH 557 0
DWIDTH 7 0
BBX 2 9 2 0
BITMAP
80
80
40
40
40
40
40
80
80
ENDCHAR
STARTCHAR asterisk
ENCODING 42
SWIDTH 557 0
DWIDTH 7 0
BBX 5 4 1 4
BITMAP
20
f0
20
50
ENDCHAR
STARTCHAR plus
ENCODING 43
SWIDTH 557 0
DWIDTH 7 0
BBX 5 5 1 2
BITMAP
20
20
f8
20
20
ENDCHAR
STARTCHAR comma
ENCODING 44
SWIDTH 557 0
DWIDTH 7 0
BBX 2 3 2 0
BITMAP
40
80
80
ENDCHAR
STARTCHAR minus
ENCODING 45
SWIDTH 557 0
DWIDTH 7 0
BBX 6 1 1 4
BITMAP
fc
ENDCHAR
STARTCHAR period
ENCODING 46
SWIDTH 557 0
DWIDTH 7 0
BBX 2 2 3 1
BITMAP
c0
40
ENDCHAR
STARTCHAR slash
ENCODING 47
SWIDTH 557 0
DWIDTH 7 0
BBX 5 10 1 -1
BITMAP
08
08
10
10
20
20
20
40
40
80
ENDCHAR
STARTCHAR zero
ENCODING 48
SWIDTH 557 0
DWIDTH 7 0
BBX 5 7 1 1
BITMAP
70
88
88
88
88
c8
70
ENDCHAR
STARTCHAR one
ENCODING 49
SWIDTH 557 0
DWIDTH 7 0
BBX 5 7 1 1
BITMAP
60
20
20
20
20
20
f8
ENDCHAR
STARTCHAR two
ENCODING 50
SWIDTH 557 0
DWIDTH 7 0
BBX 5 7 1 1
BITMAP
f0
08
08
10
20
48
f8
ENDCHAR
STARTCHAR three
ENCODING 51
SWIDTH 557 0
DWIDTH 7 0
BBX 5 7 1 1
BITMAP
f0
10
10
30
08
08
f0
ENDCHAR
STARTCHAR four
ENCODING 52
SWIDTH 557 0
DWIDTH 7 0
BBX 5 7 1 1
BITMAP
10
30
50
50
f8
10
78
ENDCHAR
STARTCHAR five
ENCODING 53
SWIDTH 557 0
DWIDTH 7 0
BBX 5 7 1 1
BITMAP
f0
80
f0
88
08
08
70
ENDCHAR
STARTCHAR six
ENCODING 54
SWIDTH 557 0
DWIDTH 7 0
BBX 5 7 1 1
BITMAP
38
40
b0
d8
88
88
70
ENDCHAR
STARTCHAR seven
ENCODING 55
SWIDTH 557 0
DWIDTH 7 0
BBX 5 7 1 1
BITMAP
f8
08
10
10
10
20
20
ENDCHAR
STARTCHAR eight
ENCODING 56
SWIDTH 557 0
DWIDTH 7 0
BBX 5 7 1 1
BITMAP
70
88
88
70
88
88
70
ENDCHAR
STARTCHAR nine
ENCODING 57
SWIDTH 557 0
DWIDTH 7 0
BBX 5 7 1 1
BITMAP
70
88
88
78
08
10
e0
ENDCHAR
STARTCHAR colon
ENCODING 58
SWIDTH 557 0
DWIDTH 7 0
BBX 2 5 3 1
BITMAP
c0
40
00
c0
40
ENDCHAR
STARTCHAR semicolon
ENCODING 59
SWIDTH 557 0
DWIDTH 7 0
BBX 3 6 2 0
BITMAP
60
20
00
60
40
40
ENDCHAR
STARTCHAR less
ENCODING 60
SWIDTH 557 0
DWIDTH 7 0
BBX 6 5 1 2
BITMAP
18
20
e0
18
04
ENDCHAR
STARTCHAR equal
ENCODING 61
SWIDTH 557 0
DWIDTH 7 0
BBX 6 3 1 3
BITMAP
fc
00
fc
ENDCHAR
STARTCHAR greater
ENCODING 62
SWIDTH 557 0
DWIDTH 7 0
BBX 6 5 1 2
BITMAP
60
10
1c
e0
80
ENDCHAR
STARTCHAR question
ENCODING 63
SWIDTH 557 0
DWIDTH 7 0
BBX 5 7 1 1
BITMAP
f0
88
08
10
20
00
20
ENDCHAR
STARTCHAR at
ENCODING 64
SWIDTH 557 0
DWIDTH 7 0
BBX 7 7 0 1
BITMAP
38
44
9a
aa
aa
7c
3c
ENDCHAR
STARTCHAR A
ENCODING 65
SWIDTH 557 0
DWIDTH 7 0
BBX 7 7 0 1
BITMAP
70
28
28
28
7c
42
c6
ENDCHAR
STARTCHAR B
ENCODING 66
SWIDTH 557 0
DWIDTH 7 0
BBX 6 7 1 1
BITMAP
f0
88
88
f8
84
84
f8
ENDCHAR
STARTCHAR C
ENCODING 67
SWIDTH 557 0
DWIDTH 7 0
BBX 6 7 1 1
BITMAP
7c
44
80
80
80
c4
78
ENDCHAR
STARTCHAR D
ENCODING 68
SWIDTH 557 0
DWIDTH 7 0
BBX 7 7 0 1
BITMAP
f8
44
42
42
42
44
f8
ENDCHAR
STARTCHAR E
ENCODING 69
SWIDTH 557 0
DWIDTH 7 0
BBX 6 7 1 1
BITMAP
fc
44
50
70
50
44
fc
ENDCHAR
STARTCHAR F
ENCODING 70
SWIDTH 557 0
DWIDTH 7 0
BBX 6 7 1 1
BITMAP
fc
44
50
70
50
40
e0
ENDCHAR
STARTCHAR G
ENCODING 71
SWIDTH 557 0
DWIDTH 7 0
BBX 7 7 0 1
BITMAP
3c
44
84
80
8e
42
3e
ENDCHAR
STARTCHAR H
ENCODING 72
SWIDTH 557 0
DWIDTH 7 0
BBX 7 7 0 1
BITMAP
ee
44
44
7c
44
44
ee
ENDCHAR
STARTCHAR I
ENCODING 73
SWIDTH 557 0
DWIDTH 7 0
BBX 5 7 1 1
BITMAP
f8
20
20
20
20
20
f8
ENDCHAR
STARTCHAR J
ENCODING 74
SWIDTH 557 0
DWIDTH 7 0
BBX 6 7 1 1
BITMAP
7c
08
08
08
88
88
f8
ENDCHAR
STARTCHAR K
ENCODING 75
SWIDTH 557 0
DWIDTH 7 0
BBX 6 7 1 1
BITMAP
cc
48
50
60
50
48
c4
ENDCHAR
STARTCHAR L
ENCODING 76
SWIDTH 557 0
DWIDTH 7 0
BBX 6 7 1 1
BITMAP
e0
40
40
40
44
44
fc
ENDCHAR
STARTCHAR M
ENCODING 77
SWIDTH 557 0
DWIDTH 7 0
BBX 7 7 0 1
BITMAP
c6
6a
6a
6a
52
42
e6
ENDCHAR
STARTCHAR N
ENCODING 78
SWIDTH 557 0
DWIDTH 7 0
BBX 7 7 0 1
BITMAP
ee
62
52
52
4a
4a
e6
ENDCHAR
STARTCHAR O
ENCODING 79
SWIDTH 557 0
DWIDTH 7 0
BBX 7 7 0 1
BITMAP
38
44
82
82
82
44
38
ENDCHAR
STARTCHAR P
ENCODING 80
SWIDTH 557 0
DWIDTH 7 0
BBX 6 7 1 1
BITMAP
f8
44
44
4c
78
40
e0
ENDCHAR
STARTCHAR Q
ENCODING 81
SWIDTH 557 0
DWIDTH 7 0
BBX 7 9 0 -1
BITMAP
38
44
82
82
82
44
38
30
2e
ENDCHAR
STARTCHAR R
ENCODING 82
SWIDTH 557 0
DWIDTH 7 0
BBX 6 7 1 1
BITMAP
f0
88
98
e0
90
98
cc
ENDCHAR
STARTCHAR S
ENCODING 83
SWIDTH 557 0
DWIDTH 7 0
BBX 5 7 1 1
BITMAP
78
88
80
70
08
88
f0
ENDCHAR
STARTCHAR T
ENCODING 84
SWIDTH 557 0
DWIDTH 7 0
BBX 7 7 0 1
BITMAP
fe
92
92
10
10
10
38
ENDCHAR
STARTCHAR U
ENCODING 85
SWIDTH 557 0
DWIDTH 7 0
BBX 7 7 0 1
BITMAP
ee
44
44
44
44
44
38
ENDCHAR
STARTCHAR V
ENCODING 86
SWIDTH 557 0
DWIDTH 7 0
BBX 7 7 0 1
BITMAP
ee
44
64
28
28
28
10
ENDCHAR
STARTCHAR W
ENCODING 87
SWIDTH 557 0
DWIDTH 7 0
BBX 7 7 0 1
BITMAP
c6
52
52
6a
6a
6a
44
ENDCHAR
STARTCHAR X
ENCODING 88
SWIDTH 557 0
DWIDTH 7 0
BBX 7 7 0 1
BITMAP
6c
28
28
10
28
44
e6
ENDCHAR
STARTCHAR Y
ENCODING 89
SWIDTH 557 0
DWIDTH 7 0
BBX 6 7 1 1
BITMAP
cc
48
48
50
20
20
78
ENDCHAR
STARTCHAR Z
ENCODING 90
SWIDTH 557 0
DWIDTH 7 0
BBX 5 7 1 1
BITMAP
f8
90
90
20
48
88
f8
ENDCHAR
STARTCHAR bracketleft
ENCODING 91
SWIDTH 557 0
DWIDTH 7 0
BBX 2 9 4 0
BITMAP
c0
80
80
80
80
80
80
80
c0
ENDCHAR
STARTCHAR backslash
ENCODING 92
SWIDTH 557 0
DWIDTH 7 0
BBX 5 10 1 -1
BITMAP
80
40
40
20
20
20
10
10
08
08
ENDCHAR
STARTCHAR bracketright
ENCODING 93
SWIDTH 557 0
DWIDTH 7 0
BBX 3 9 1 0
BITMAP
e0
20
20
20
20
20
20
20
e0
ENDCHAR
STARTCHAR asciicircum
ENCODING 94
SWIDTH 557 0
DWIDTH 7 0
BBX 5 6 1 2
BITMAP
20
50
50
50
88
88
ENDCHAR
STARTCHAR underscore
ENCODING 95
SWIDTH 557 0
DWIDTH 7 0
BBX 8 1 0 -1
BITMAP
ff
ENDCHAR
STARTCHAR quoteleft
ENCODING 96
SWIDTH 557 0
DWIDTH 7 0
BBX 2 3 2 5
BITMAP
40
40
80
ENDCHAR
STARTCHAR a
ENCODING 97
SWIDTH 557 0
DWIDTH 7 0
BBX 6 5 1 1
BITMAP
70
78
88
88
fc
ENDCHAR
STARTCHAR b
ENCODING 98
SWIDTH 557 0
DWIDTH 7 0
BBX 7 7 0 1
BITMAP
40
40
7c
42
42
42
fc
ENDCHAR
STARTCHAR c
ENCODING 99
SWIDTH 557 0
DWIDTH 7 0
BBX 6 5 1 1
BITMAP
78
84
80
80
78
ENDCHAR
STARTCHAR d
ENCODING 100
SWIDTH 557 0
DWIDTH 7 0
BBX 7 7 0 1
BITMAP
1c
04
7c
84
84
c4
3e
ENDCHAR
STARTCHAR e
ENCODING 101
SWIDTH 557 0
DWIDTH 7 0
BBX 6 5 1 1
BITMAP
78
8c
fc
80
78
ENDCHAR
STARTCHAR f
ENCODING 102
SWIDTH 557 0
DWIDTH 7 0
BBX 6 7 1 1
BITMAP
7c
40
f8
40
40
40
f8
ENDCHAR
STARTCHAR g
ENCODING 103
SWIDTH 557 0
DWIDTH 7 0
BBX 7 7 0 -1
BITMAP
7e
84
84
cc
34
04
38
ENDCHAR
STARTCHAR h
ENCODING 104
SWIDTH 557 0
DWIDTH 7 0
BBX 7 7 0 1
BITMAP
40
40
7c
44
44
44
ee
ENDCHAR
STARTCHAR i
ENCODING 105
SWIDTH 557 0
DWIDTH 7 0
BBX 5 8 1 1
BITMAP
20
00
00
60
20
20
20
f8
ENDCHAR
STARTCHAR j
ENCODING 106
SWIDTH 557 0
DWIDTH 7 0
BBX 4 10 1 -1
BITMAP
10
00
00
f0
10
10
10
10
10
e0
ENDCHAR
STARTCHAR k
ENCODING 107
SWIDTH 557 0
DWIDTH 7 0
BBX 7 7 0 1
BITMAP
40
40
4e
58
78
44
46
ENDCHAR
STARTCHAR l
ENCODING 108
SWIDTH 557 0
DWIDTH 7 0
BBX 5 7 1 1
BITMAP
60
20
20
20
20
20
f8
ENDCHAR
STARTCHAR m
ENCODING 109
SWIDTH 557 0
DWIDTH 7 0
BBX 7 5 0 1
BITMAP
fe
92
92
92
da
ENDCHAR
STARTCHAR n
ENCODING 110
SWIDTH 557 0
DWIDTH 7 0
BBX 7 5 0 1
BITMAP
fc
44
44
44
ee
ENDCHAR
STARTCHAR o
ENCODING 111
SWIDTH 557 0
DWIDTH 7 0
BBX 7 5 0 1
BITMAP
7c
82
82
c6
3c
ENDCHAR
STARTCHAR p
ENCODING 112
SWIDTH 557 0
DWIDTH 7 0
BBX 7 7 0 -1
BITMAP
fc
42
42
46
7c
40
f0
ENDCHAR
STARTCHAR q
ENCODING 113
SWIDTH 557 0
DWIDTH 7 0
BBX 7 7 0 -1
BITMAP
7e
c4
84
c4
3c
04
0e
ENDCHAR
STARTCHAR r
ENCODING 114
SWIDTH 557 0
DWIDTH 7 0
BBX 6 5 1 1
BITMAP
fc
60
40
40
f0
ENDCHAR
STARTCHAR s
ENCODING 115
SWIDTH 557 0
DWIDTH 7 0
BBX 5 5 1 1
BITMAP
70
88
f0
c8
b0
ENDCHAR
STARTCHAR t
ENCODING 116
SWIDTH 557 0
DWIDTH 7 0
BBX 5 7 1 1
BITMAP
40
40
f8
40
40
40
78
ENDCHAR
STARTCHAR u
ENCODING 117
SWIDTH 557 0
DWIDTH 7 0
BBX 7 5 0 1
BITMAP
cc
44
44
44
3e
ENDCHAR
STARTCHAR v
ENCODING 118
SWIDTH 557 0
DWIDTH 7 0
BBX 7 5 0 1
BITMAP
e6
44
24
28
10
ENDCHAR
STARTCHAR w
ENCODING 119
SWIDTH 557 0
DWIDTH 7 0
BBX 7 5 0 1
BITMAP
c6
52
6a
6c
24
ENDCHAR
STARTCHAR x
ENCODING 120
SWIDTH 557 0
DWIDTH 7 0
BBX 7 5 0 1
BITMAP
6c
28
10
6c
c6
ENDCHAR
STARTCHAR y
ENCODING 121
SWIDTH 557 0
DWIDTH 7 0
BBX 7 7 0 -1
BITMAP
c6
44
24
28
10
20
f0
ENDCHAR
STARTCHAR z
ENCODING 122
SWIDTH 557 0
DWIDTH 7 0
BBX 5 5 1 1
BITMAP
f8
10
20
48
f8
ENDCHAR
STARTCHAR braceleft
ENCODING 123
SWIDTH 557 0
DWIDTH 7 0
BBX 3 9 3 0
BITMAP
60
80
80
40
80
40
40
80
60
ENDCHAR
STARTCHAR bar
ENCODING 124
SWIDTH 557 0
DWIDTH 7 0
BBX 1 10 3 -1
BITMAP
80
80
80
80
80
80
80
80
80
80
ENDCHAR
STARTCHAR braceright
ENCODING 125
SWIDTH 557 0
DWIDTH 7 0
BBX 2 9 2 0
BITMAP
80
40
40
40
40
40
40
40
c0
ENDCHAR
STARTCHAR asciitilde
ENCODING 126
SWIDTH 557 0
DWIDTH 7 0
BBX 5 2 1 4
BITMAP
68
90
ENDCHAR
STARTCHAR space
ENCODING 160
SWIDTH 557 0
DWIDTH 7 0
BBX 0 0 0 1
BITMAP
ENDCHAR
STARTCHAR Aogonek
ENCODING 161
SWIDTH 557 0
DWIDTH 7 0
BBX 8 9 0 -1
BITMAP
70
28
28
28
7c
42
c6
07
02
ENDCHAR
STARTCHAR breve
ENCODING 162
SWIDTH 557 0
DWIDTH 7 0
BBX 4 1 2 7
BITMAP
70
ENDCHAR
STARTCHAR Lslash
ENCODING 163
SWIDTH 557 0
DWIDTH 7 0
BBX 6 7 1 1
BITMAP
e0
40
70
c4
c4
44
fc
ENDCHAR
STARTCHAR currency
ENCODING 164
SWIDTH 557 0
DWIDTH 7 0
BBX 5 5 1 2
BITMAP
f8
88
88
88
f8
ENDCHAR
STARTCHAR Lcaron
ENCODING 165
SWIDTH 557 0
DWIDTH 7 0
BBX 6 7 1 1
BITMAP
e8
40
40
40
44
44
fc
ENDCHAR
STARTCHAR Sacute
ENCODING 166
SWIDTH 557 0
DWIDTH 7 0
BBX 5 9 1 1
BITMAP
10
00
78
88
80
70
08
88
f0
ENDCHAR
STARTCHAR section
ENCODING 167
SWIDTH 557 0
DWIDTH 7 0
BBX 5 8 1 0
BITMAP
78
48
60
90
48
28
90
f0
ENDCHAR
STARTCHAR dieresis
ENCODING 168
SWIDTH 557 0
DWIDTH 7 0
BBX 3 1 2 7
BITMAP
a0
ENDCHAR
STARTCHAR Scaron
ENCODING 169
SWIDTH 557 0
DWIDTH 7 0
BBX 5 10 1 1
BITMAP
10
70
00
78
88
80
70
08
88
f0
ENDCHAR
STARTCHAR Scedilla
ENCODING 170
SWIDTH 557 0
DWIDTH 7 0
BBX 5 9 1 -1
BITMAP
78
88
88
70
08
88
f0
30
30
ENDCHAR
STARTCHAR Tcaron
ENCODING 171
SWIDTH 557 0
DWIDTH 7 0
BBX 7 10 0 1
BITMAP
08
38
00
fe
92
92
10
10
10
38
ENDCHAR
STARTCHAR Zacute
ENCODING 172
SWIDTH 557 0
DWIDTH 7 0
BBX 5 9 1 1
BITMAP
10
00
f8
90
90
20
48
88
f8
ENDCHAR
STARTCHAR hyphen
ENCODING 173
SWIDTH 557 0
DWIDTH 7 0
BBX 3 1 2 4
BITMAP
e0
ENDCHAR
STARTCHAR Zcaron
ENCODING 174
SWIDTH 557 0
DWIDTH 7 0
BBX 5 10 1 1
BITMAP
10
70
00
f8
90
90
20
48
88
f8
ENDCHAR
STARTCHAR Zdotaccent
ENCODING 175
SWIDTH 557 0
DWIDTH 7 0
BBX 5 9 1 1
BITMAP
20
00
f8
90
90
20
48
88
f8
ENDCHAR
STARTCHAR degree
ENCODING 176
SWIDTH 557 0
DWIDTH 7 0
BBX 4 3 2 5
BITMAP
e0
90
e0
ENDCHAR
STARTCHAR aogonek
ENCODING 177
SWIDTH 557 0
DWIDTH 7 0
BBX 6 7 1 -1
BITMAP
70
78
88
88
fc
0c
08
ENDCHAR
STARTCHAR ogonek
ENCODING 178
SWIDTH 557 0
DWIDTH 7 0
BBX 2 2 3 -1
BITMAP
c0
80
ENDCHAR
STARTCHAR lslash
ENCODING 179
SWIDTH 557 0
DWIDTH 7 0
BBX 5 7 1 1
BITMAP
60
20
38
e0
60
20
f8
ENDCHAR
STARTCHAR acute
ENCODING 180
SWIDTH 557 0
DWIDTH 7 0
BBX 2 1 3 7
BITMAP
40
ENDCHAR
STARTCHAR lcaron
ENCODING 181
SWIDTH 557 0
DWIDTH 7 0
BBX 5 7 1 1
BITMAP
68
20
20
20
20
20
f8
ENDCHAR
STARTCHAR sacute
ENCODING 182
SWIDTH 557 0
DWIDTH 7 0
BBX 5 7 1 1
BITMAP
10
00
70
88
f0
c8
b0
ENDCHAR
STARTCHAR caron
ENCODING 183
SWIDTH 557 0
DWIDTH 7 0
BBX 3 1 2 7
BITMAP
40
ENDCHAR
STARTCHAR cedilla
ENCODING 184
SWIDTH 557 0
DWIDTH 7 0
BBX 3 3 2 -1
BITMAP
40
60
60
ENDCHAR
STARTCHAR scaron
ENCODING 185
SWIDTH 557 0
DWIDTH 7 0
BBX 5 7 1 1
BITMAP
20
00
70
88
f0
c8
b0
ENDCHAR
STARTCHAR scedilla
ENCODING 186
SWIDTH 557 0
DWIDTH 7 0
BBX 5 7 1 -1
BITMAP
70
88
f8
88
f8
30
30
ENDCHAR
STARTCHAR tcaron
ENCODING 187
SWIDTH 557 0
DWIDTH 7 0
BBX 5 7 1 1
BITMAP
48
40
f8
40
40
40
78
ENDCHAR
STARTCHAR zacute
ENCODING 188
SWIDTH 557 0
DWIDTH 7 0
BBX 5 7 1 1
BITMAP
10
00
f8
10
20
48
f8
ENDCHAR
STARTCHAR hungarumlaut
ENCODING 189
SWIDTH 557 0
DWIDTH 7 0
BBX 4 1 2 7
BITMAP
50
ENDCHAR
STARTCHAR zcaron
ENCODING 190
SWIDTH 557 0
DWIDTH 7 0
BBX 5 7 1 1
BITMAP
20
00
f8
10
20
48
f8
ENDCHAR
STARTCHAR zdotaccent
ENCODING 191
SWIDTH 557 0
DWIDTH 7 0
BBX 5 7 1 1
BITMAP
20
00
f8
10
20
48
f8
ENDCHAR
STARTCHAR Racute
ENCODING 192
SWIDTH 557 0
DWIDTH 7 0
BBX 6 9 1 1
BITMAP
10
00
f0
88
98
e0
90
98
cc
ENDCHAR
STARTCHAR Aacute
ENCODING 193
SWIDTH 557 0
DWIDTH 7 0
BBX 7 9 0 1
BITMAP
08
00
70
28
28
28
7c
42
c6
ENDCHAR
STARTCHAR Acircumflex
ENCODING 194
SWIDTH 557 0
DWIDTH 7 0
BBX 7 9 0 1
BITMAP
10
00
70
28
28
28
7c
42
c6
ENDCHAR
STARTCHAR Abreve
ENCODING 195
SWIDTH 557 0
DWIDTH 7 0
BBX 7 9 0 1
BITMAP
24
1c
70
28
28
28
7c
42
c6
ENDCHAR
STARTCHAR Adieresis
ENCODING 196
SWIDTH 557 0
DWIDTH 7 0
BBX 7 9 0 1
BITMAP
28
00
70
28
28
28
7c
42
c6
ENDCHAR
STARTCHAR Lacute
ENCODING 197
SWIDTH 557 0
DWIDTH 7 0
BBX 6 9 1 1
BITMAP
20
00
e0
40
40
40
44
44
fc
ENDCHAR
STARTCHAR Cacute
ENCODING 198
SWIDTH 557 0
DWIDTH 7 0
BBX 6 9 1 1
BITMAP
10
00
7c
44
80
80
80
c4
78
ENDCHAR
STARTCHAR Ccedilla
ENCODING 199
SWIDTH 557 0
DWIDTH 7 0
BBX 7 9 1 -1
BITMAP
74
8c
84
80
80
86
78
10
30
ENDCHAR
STARTCHAR Ccaron
ENCODING 200
SWIDTH 557 0
DWIDTH 7 0
BBX 6 10 1 1
BITMAP
10
70
00
7c
44
80
80
80
c4
78
ENDCHAR
STARTCHAR Eacute
ENCODING 201
SWIDTH 557 0
DWIDTH 7 0
BBX 6 9 1 1
BITMAP
10
00
fc
44
50
70
50
44
fc
ENDCHAR
STARTCHAR Eogonek
ENCODING 202
SWIDTH 557 0
DWIDTH 7 0
BBX 6 9 1 -1
BITMAP
fc
44
50
70
50
44
fc
14
08
ENDCHAR
STARTCHAR Edieresis
ENCODING 203
SWIDTH 557 0
DWIDTH 7 0
BBX 6 9 1 1
BITMAP
50
00
fc
44
50
70
50
44
fc
ENDCHAR
STARTCHAR Ecaron
ENCODING 204
SWIDTH 557 0
DWIDTH 7 0
BBX 6 10 1 1
BITMAP
10
70
00
fc
44
50
70
50
44
fc
ENDCHAR
STARTCHAR Iacute
ENCODING 205
SWIDTH 557 0
DWIDTH 7 0
BBX 5 9 1 1
BITMAP
10
00
f8
20
20
20
20
20
f8
ENDCHAR
STARTCHAR Icircumflex
ENCODING 206
SWIDTH 557 0
DWIDTH 7 0
BBX 5 9 1 1
BITMAP
20
00
f8
20
20
20
20
20
f8
ENDCHAR
STARTCHAR Dcaron
ENCODING 207
SWIDTH 557 0
DWIDTH 7 0
BBX 7 10 0 1
BITMAP
08
38
00
f8
44
42
42
42
44
f8
ENDCHAR
STARTCHAR Eth
ENCODING 208
SWIDTH 557 0
DWIDTH 7 0
BBX 7 7 0 1
BITMAP
f8
44
42
f2
42
44
f8
ENDCHAR
STARTCHAR Nacute
ENCODING 209
SWIDTH 557 0
DWIDTH 7 0
BBX 7 9 0 1
BITMAP
08
00
ee
62
52
52
4a
4a
e6
ENDCHAR
STARTCHAR Ncaron
ENCODING 210
SWIDTH 557 0
DWIDTH 7 0
BBX 7 10 0 1
BITMAP
08
38
00
ee
62
52
52
4a
4a
e6
ENDCHAR
STARTCHAR Oacute
ENCODING 211
SWIDTH 557 0
DWIDTH 7 0
BBX 7 9 0 1
BITMAP
08
00
38
44
82
82
82
44
38
ENDCHAR
STARTCHAR Ocircumflex
ENCODING 212
SWIDTH 557 0
DWIDTH 7 0
BBX 7 9 0 1
BITMAP
10
00
38
44
82
82
82
44
38
ENDCHAR
STARTCHAR Ohungarumlaut
ENCODING 213
SWIDTH 557 0
DWIDTH 7 0
BBX 7 9 0 1
BITMAP
18
00
38
44
82
82
82
44
38
ENDCHAR
STARTCHAR Odieresis
ENCODING 214
SWIDTH 557 0
DWIDTH 7 0
BBX 7 9 0 1
BITMAP
28
00
38
44
82
82
82
44
38
ENDCHAR
STARTCHAR multiply
ENCODING 215
SWIDTH 557 0
DWIDTH 7 0
BBX 4 5 2 2
BITMAP
90
70
20
d0
90
ENDCHAR
STARTCHAR Rcaron
ENCODING 216
SWIDTH 557 0
DWIDTH 7 0
BBX 6 10 1 1
BITMAP
10
70
00
f0
88
98
e0
90
98
cc
ENDCHAR
STARTCHAR Uring
ENCODING 217
SWIDTH 557 0
DWIDTH 7 0
BBX 7 10 0 1
BITMAP
10
28
10
ee
44
44
44
44
44
38
ENDCHAR
STARTCHAR Uacute
ENCODING 218
SWIDTH 557 0
DWIDTH 7 0
BBX 7 9 0 1
BITMAP
08
00
ee
44
44
44
44
44
38
ENDCHAR
STARTCHAR Uhungarumlaut
ENCODING 219
SWIDTH 557 0
DWIDTH 7 0
BBX 7 9 0 1
BITMAP
18
00
ee
44
44
44
44
44
38
ENDCHAR
STARTCHAR Udieresis
ENCODING 220
SWIDTH 557 0
DWIDTH 7 0
BBX 7 9 0 1
BITMAP
28
00
ee
44
44
44
44
44
38
ENDCHAR
STARTCHAR Yacute
ENCODING 221
SWIDTH 557 0
DWIDTH 7 0
BBX 6 9 1 1
BITMAP
10
00
cc
48
48
50
20
20
78
ENDCHAR
STARTCHAR Tcedilla
ENCODING 222
SWIDTH 557 0
DWIDTH 7 0
BBX 7 9 0 -1
BITMAP
fe
92
92
10
10
10
38
18
18
ENDCHAR
STARTCHAR germandbls
ENCODING 223
SWIDTH 557 0
DWIDTH 7 0
BBX 5 7 1 1
BITMAP
70
88
b0
88
88
88
b0
ENDCHAR
STARTCHAR racute
ENCODING 224
SWIDTH 557 0
DWIDTH 7 0
BBX 6 7 1 1
BITMAP
10
00
fc
60
40
40
f0
ENDCHAR
STARTCHAR aacute
ENCODING 225
SWIDTH 557 0
DWIDTH 7 0
BBX 6 7 1 1
BITMAP
10
00
70
78
88
88
fc
ENDCHAR
STARTCHAR acircumflex
ENCODING 226
SWIDTH 557 0
DWIDTH 7 0
BBX 6 7 1 1
BITMAP
70
00
70
78
88
88
fc
ENDCHAR
STARTCHAR abreve
ENCODING 227
SWIDTH 557 0
DWIDTH 7 0
BBX 6 7 1 1
BITMAP
38
00
70
78
88
88
fc
ENDCHAR
STARTCHAR adieresis
ENCODING 228
SWIDTH 557 0
DWIDTH 7 0
BBX 6 7 1 1
BITMAP
50
00
70
78
88
88
fc
ENDCHAR
STARTCHAR lacute
ENCODING 229
SWIDTH 557 0
DWIDTH 7 0
BBX 5 9 1 1
BITMAP
10
00
60
20
20
20
20
20
f8
ENDCHAR
STARTCHAR cacute
ENCODING 230
SWIDTH 557 0
DWIDTH 7 0
BBX 6 7 1 1
BITMAP
10
00
78
84
80
80
78
ENDCHAR
STARTCHAR ccedilla
ENCODING 231
SWIDTH 557 0
DWIDTH 7 0
BBX 6 7 1 -1
BITMAP
7c
84
80
80
78
20
30
ENDCHAR
STARTCHAR ccaron
ENCODING 232
SWIDTH 557 0
DWIDTH 7 0
BBX 6 7 1 1
BITMAP
20
00
78
84
80
80
78
ENDCHAR
STARTCHAR eacute
ENCODING 233
SWIDTH 557 0
DWIDTH 7 0
BBX 6 7 1 1
BITMAP
10
00
78
8c
fc
80
78
ENDCHAR
STARTCHAR eogonek
ENCODING 234
SWIDTH 557 0
DWIDTH 7 0
BBX 6 7 1 -1
BITMAP
78
8c
fc
80
78
28
10
ENDCHAR
STARTCHAR edieresis
ENCODING 235
SWIDTH 557 0
DWIDTH 7 0
BBX 6 7 1 1
BITMAP
50
00
78
8c
fc
80
78
ENDCHAR
STARTCHAR ecaron
ENCODING 236
SWIDTH 557 0
DWIDTH 7 0
BBX 6 7 1 1
BITMAP
20
00
78
8c
fc
80
78
ENDCHAR
STARTCHAR iacute
ENCODING 237
SWIDTH 557 0
DWIDTH 7 0
BBX 5 7 1 1
BITMAP
10
00
60
20
20
20
f8
ENDCHAR
STARTCHAR icircumflex
ENCODING 238
SWIDTH 557 0
DWIDTH 7 0
BBX 5 7 1 1
BITMAP
70
00
60
20
20
20
f8
ENDCHAR
STARTCHAR dcaron
ENCODING 239
SWIDTH 557 0
DWIDTH 7 0
BBX 8 7 0 1
BITMAP
1d
04
7c
84
84
c4
3e
ENDCHAR
STARTCHAR dbar
ENCODING 240
SWIDTH 557 0
DWIDTH 7 0
BBX 7 7 0 1
BITMAP
3c
3e
7c
84
84
c4
3e
ENDCHAR
STARTCHAR nacute
ENCODING 241
SWIDTH 557 0
DWIDTH 7 0
BBX 7 7 0 1
BITMAP
08
00
fc
44
44
44
ee
ENDCHAR
STARTCHAR ncaron
ENCODING 242
SWIDTH 557 0
DWIDTH 7 0
BBX 7 7 0 1
BITMAP
10
00
fc
44
44
44
ee
ENDCHAR
STARTCHAR oacute
ENCODING 243
SWIDTH 557 0
DWIDTH 7 0
BBX 7 7 0 1
BITMAP
08
00
7c
82
82
c6
3c
ENDCHAR
STARTCHAR ocircumflex
ENCODING 244
SWIDTH 557 0
DWIDTH 7 0
BBX 7 7 0 1
BITMAP
38
00
7c
82
82
c6
3c
ENDCHAR
STARTCHAR ohungarumlaut
ENCODING 245
SWIDTH 557 0
DWIDTH 7 0
BBX 7 7 0 1
BITMAP
14
00
7c
82
82
c6
3c
ENDCHAR
STARTCHAR odieresis
ENCODING 246
SWIDTH 557 0
DWIDTH 7 0
BBX 7 7 0 1
BITMAP
28
00
7c
82
82
c6
3c
ENDCHAR
STARTCHAR divide
ENCODING 247
SWIDTH 557 0
DWIDTH 7 0
BBX 5 5 1 2
BITMAP
20
00
f8
00
20
ENDCHAR
STARTCHAR rcaron
ENCODING 248
SWIDTH 557 0
DWIDTH 7 0
BBX 6 7 1 1
BITMAP
20
00
fc
60
40
40
f0
ENDCHAR
STARTCHAR uring
ENCODING 249
SWIDTH 557 0
DWIDTH 7 0
BBX 7 8 0 1
BITMAP
18
38
00
cc
44
44
44
3e
ENDCHAR
STARTCHAR uacute
ENCODING 250
SWIDTH 557 0
DWIDTH 7 0
BBX 7 7 0 1
BITMAP
08
00
cc
44
44
44
3e
ENDCHAR
STARTCHAR uhungarumlaut
ENCODING 251
SWIDTH 557 0
DWIDTH 7 0
BBX 7 7 0 1
BITMAP
14
00
cc
44
44
44
3e
ENDCHAR
STARTCHAR udieresis
ENCODING 252
SWIDTH 557 0
DWIDTH 7 0
BBX 7 7 0 1
BITMAP
28
00
cc
44
44
44
3e
ENDCHAR
STARTCHAR yacute
ENCODING 253
SWIDTH 557 0
DWIDTH 7 0
BBX 7 9 0 -1
BITMAP
08
00
c6
44
24
28
10
20
f0
ENDCHAR
STARTCHAR tcedilla
ENCODING 254
SWIDTH 557 0
DWIDTH 7 0
BBX 5 9 1 -1
BITMAP
40
40
f8
40
40
40
38
10
30
ENDCHAR
STARTCHAR dotaccent
ENCODING 255
SWIDTH 557 0
DWIDTH 7 0
BBX 1 1 3 7
BITMAP
80
ENDCHAR
ENDFONT
